<?xml version="1.0" encoding="UTF-8" standalone="no"?>
<!DOCTYPE svg PUBLIC "-//W3C//DTD SVG 1.1//EN" "http://www.w3.org/Graphics/SVG/1.1/DTD/svg11.dtd">
<svg width="100%" height="100%" viewBox="0 0 100 100" version="1.1" xmlns="http://www.w3.org/2000/svg" xmlns:xlink="http://www.w3.org/1999/xlink" xml:space="preserve" xmlns:serif="http://www.serif.com/" style="fill-rule:evenodd;clip-rule:evenodd;stroke-linejoin:round;stroke-miterlimit:2;">
    <rect id="Artboard1" x="0" y="0" width="100" height="100" style="fill:none;"/>
    <g id="Artboard11" serif:id="Artboard1">
        <g>
            <path d="M27.718,11.768C13.777,12.079 2.555,23.493 2.555,37.509C2.555,41.71 3.563,45.679 5.352,49.185C3.563,52.691 2.555,56.66 2.555,60.861C2.555,74.541 13.247,85.744 26.722,86.56C31.091,94.563 39.584,99.996 49.336,99.996C59.07,99.996 67.549,94.583 71.925,86.607C86.031,86.486 97.445,74.996 97.445,60.861C97.445,56.66 96.437,52.691 94.648,49.185C96.437,45.679 97.445,41.71 97.445,37.509C97.445,23.299 85.909,11.762 71.699,11.762C71.45,11.762 71.202,11.766 70.957,11.773C66.367,4.692 58.395,0.003 49.336,0.003C40.279,0.003 32.307,4.691 27.718,11.768ZM65.089,85.75C63.864,87.258 62.403,88.61 60.714,89.75L60.714,89.75C52.154,95.525 40.696,93.848 33.771,86.236C33.719,86.179 33.674,86.117 33.637,86.053C32.512,86.291 31.361,86.455 30.188,86.54C34.238,92.833 41.304,97.003 49.336,97.003C57.42,97.003 64.524,92.779 68.561,86.418C67.377,86.274 66.218,86.05 65.089,85.75ZM57.827,82.55C57.781,82.601 57.729,82.648 57.671,82.69C57.214,83.03 56.731,83.346 56.221,83.638L56.22,83.639C51.363,86.404 45.595,85.952 41.504,82.965C39.782,83.996 37.93,84.832 35.979,85.442C42.235,91.709 52.088,92.979 59.513,87.97C60.774,87.119 61.893,86.136 62.865,85.05C61.086,84.399 59.399,83.558 57.827,82.55ZM46.46,55.754C42.052,60.141 36.064,62.945 29.428,63.231C27.615,66.497 26.582,70.254 26.582,74.25C26.582,77.587 27.302,80.756 28.595,83.613C37.119,83.505 44.521,78.699 48.326,71.667C46.803,68.38 45.952,64.719 45.952,60.861C45.952,59.112 46.127,57.403 46.46,55.754ZM53.54,55.754C53.873,57.403 54.048,59.112 54.048,60.861C54.048,64.719 53.197,68.38 51.674,71.667C55.283,78.338 62.129,83.006 70.101,83.56C71.378,80.718 72.09,77.567 72.09,74.25C72.09,70.214 71.036,66.422 69.19,63.134C63.107,62.544 57.64,59.834 53.54,55.754ZM92.779,52.287C91.467,54.154 89.913,55.839 88.163,57.297C88.644,58.945 88.902,60.689 88.902,62.492C88.902,71.381 82.642,78.807 74.291,80.607C74.034,81.615 73.718,82.599 73.347,83.556C85.136,82.711 94.452,72.866 94.452,60.861C94.452,57.829 93.858,54.934 92.779,52.287ZM7.221,52.287C6.142,54.934 5.548,57.829 5.548,60.861C5.548,72.392 14.143,81.931 25.271,83.415C24.934,82.532 24.645,81.627 24.406,80.701C22.793,80.246 21.204,79.582 19.678,78.701C11.408,73.927 7.759,64.364 10.471,56.075C9.27,54.922 8.181,53.653 7.221,52.287ZM50,74.718C48.283,77.398 46.084,79.741 43.526,81.621C46.875,83.68 51.325,83.842 55.107,81.689C55.382,81.531 55.649,81.365 55.906,81.191C53.589,79.388 51.588,77.198 50,74.718ZM12.333,57.7C10.489,64.8 13.795,72.712 20.801,76.757L20.801,76.757C21.804,77.336 22.838,77.811 23.888,78.182C23.692,76.901 23.589,75.587 23.589,74.25C23.589,73.693 23.607,73.14 23.642,72.593C23.531,72.534 23.421,72.472 23.311,72.409C18.973,69.904 16.726,65.232 17.238,60.76C15.485,59.924 13.841,58.895 12.333,57.7ZM86.228,58.762C84.792,59.746 83.252,60.588 81.627,61.268C81.67,61.67 81.692,62.078 81.692,62.491C81.692,67.078 78.963,71.028 75.043,72.806C75.069,73.284 75.083,73.765 75.083,74.25C75.083,75.583 74.981,76.892 74.785,78.172C81.635,76.248 86.657,69.956 86.657,62.492C86.657,61.209 86.508,59.96 86.228,58.762ZM79.438,62.07C77.271,62.753 74.983,63.156 72.613,63.239C73.672,65.473 74.42,67.885 74.799,70.416C77.572,68.864 79.447,65.897 79.447,62.491C79.447,62.35 79.444,62.21 79.438,62.07ZM19.417,61.679C19.29,64.917 20.932,68.184 23.916,70.145C24.31,67.684 25.055,65.339 26.096,63.162C23.769,62.964 21.529,62.456 19.417,61.679ZM57.046,63.354C55.436,64.283 54.883,66.346 55.813,67.956C56.742,69.566 58.805,70.119 60.415,69.189C62.026,68.26 62.578,66.197 61.649,64.587C60.719,62.977 58.657,62.424 57.046,63.354ZM41.626,63.354C40.016,62.424 37.953,62.977 37.024,64.587C36.094,66.197 36.647,68.26 38.257,69.189C39.868,70.119 41.93,69.566 42.86,67.956C43.789,66.346 43.237,64.283 41.626,63.354ZM50,54C50.685,56.165 51.055,58.47 51.055,60.861C51.055,63.253 50.685,65.558 50,67.723C49.315,65.558 48.945,63.253 48.945,60.861C48.945,58.47 49.315,56.165 50,54ZM40.504,65.298C41.041,65.608 41.226,66.296 40.915,66.834C40.605,67.371 39.917,67.555 39.38,67.245C38.842,66.935 38.658,66.247 38.968,65.709C39.278,65.172 39.966,64.988 40.504,65.298ZM58.169,65.298C58.706,64.988 59.394,65.172 59.704,65.709C60.015,66.247 59.83,66.935 59.293,67.245C58.755,67.555 58.067,67.371 57.757,66.834C57.447,66.296 57.631,65.608 58.169,65.298ZM71.924,38.109C68.914,43.594 63.964,47.866 58,50C63.355,51.916 67.893,55.556 70.942,60.25C71.192,60.258 71.445,60.262 71.699,60.262C79.99,60.262 87.251,55.818 91.228,49.185C87.287,42.611 80.12,38.188 71.924,38.109ZM26.776,38.158C19.126,38.666 12.504,42.961 8.772,49.185C12.657,55.664 19.675,60.055 27.727,60.255C30.776,55.559 35.314,51.917 40.672,50C34.726,47.873 29.788,43.619 26.776,38.158ZM46.057,51.731C44.295,53.928 42.134,55.791 39.684,57.21C37.235,58.63 34.496,59.605 31.58,60.027C35.105,55.634 40.224,52.575 46.057,51.731ZM54.172,52.012C56.703,52.561 59.077,53.531 61.218,54.846C63.359,56.161 65.267,57.82 66.863,59.746C61.801,58.649 57.365,55.865 54.172,52.012ZM30.569,46.631L30.548,46.631C28.688,46.631 27.178,48.141 27.178,50C27.178,51.859 28.688,53.369 30.548,53.369L30.569,53.369C32.419,53.357 33.917,51.852 33.917,50C33.917,48.148 32.419,46.643 30.569,46.631ZM64.756,50C64.756,51.859 66.265,53.369 68.125,53.369C69.984,53.369 71.494,51.859 71.494,50C71.494,48.141 69.984,46.631 68.125,46.631C66.265,46.631 64.756,48.141 64.756,50ZM67.001,50C67.001,49.38 67.504,48.876 68.125,48.876C68.745,48.876 69.249,49.38 69.249,50C69.249,50.62 68.745,51.124 68.125,51.124C67.504,51.124 67.001,50.62 67.001,50ZM30.548,48.876L30.562,48.876C31.176,48.884 31.672,49.385 31.672,50C31.672,50.615 31.176,51.116 30.562,51.124L30.548,51.124C29.927,51.124 29.423,50.62 29.423,50C29.423,49.38 29.927,48.876 30.548,48.876ZM30.288,38.194C33.857,38.503 37.191,39.638 40.099,41.406C43.006,43.174 45.487,45.575 47.349,48.418C40.211,47.799 34.012,43.879 30.288,38.194ZM68.271,38.365C66.531,40.97 64.268,43.196 61.634,44.893C58.999,46.59 55.993,47.758 52.764,48.247C56.244,43.037 61.814,39.343 68.271,38.365ZM24.297,19.412L24.382,19.393C24.781,17.824 25.325,16.311 25.998,14.87C14.52,16.026 5.548,25.728 5.548,37.509C5.548,40.541 6.142,43.436 7.221,46.083C8.165,44.74 9.234,43.491 10.411,42.353L10.391,42.281L10.372,42.208L10.353,42.135L10.343,42.093L10.335,42.063L10.317,41.99L10.299,41.919C10.293,41.892 10.286,41.865 10.279,41.837L10.263,41.77L10.246,41.697L10.23,41.623L10.213,41.55L10.198,41.483L10.179,41.395L10.165,41.328L10.15,41.254L10.135,41.18L10.12,41.106L10.107,41.042C10.097,40.986 10.086,40.93 10.076,40.874L10.064,40.808L10.051,40.733L10.038,40.658L10.025,40.583L10.013,40.514L9.999,40.426L9.989,40.358L9.977,40.282L9.966,40.207L9.955,40.131L9.946,40.064C9.938,40.008 9.93,39.951 9.923,39.895L9.915,39.828L9.905,39.752L9.9,39.709L9.896,39.676L9.888,39.6L9.88,39.527C9.876,39.498 9.873,39.47 9.871,39.441L9.863,39.37L9.856,39.294L9.852,39.256L9.849,39.217L9.844,39.165L9.842,39.14L9.836,39.07L9.829,38.983L9.823,38.909L9.817,38.832L9.812,38.755L9.809,38.709L9.807,38.678L9.803,38.6L9.798,38.524C9.797,38.496 9.795,38.467 9.794,38.438L9.79,38.367L9.787,38.29L9.785,38.249L9.784,38.212L9.782,38.157L9.781,38.134L9.779,38.061L9.777,37.972L9.775,37.9L9.773,37.821L9.773,37.787L9.772,37.743L9.772,37.694L9.772,37.665L9.771,37.594C9.771,37.565 9.771,37.537 9.771,37.508C9.771,37.472 9.771,37.437 9.771,37.401L9.772,37.3L9.773,37.196L9.775,37.092L9.776,37.073L9.778,36.989L9.779,36.965L9.78,36.929L9.781,36.885L9.782,36.857L9.783,36.822L9.785,36.782L9.786,36.749L9.788,36.716L9.789,36.679L9.791,36.641L9.792,36.61L9.794,36.576L9.796,36.534L9.798,36.505L9.799,36.473L9.802,36.426L9.804,36.4L9.805,36.37L9.808,36.319L9.812,36.268L9.814,36.238L9.815,36.212L9.819,36.165L9.821,36.133L9.823,36.105L9.826,36.063L9.829,36.029L9.831,35.998L9.834,35.961L9.838,35.924L9.84,35.891L9.843,35.859L9.847,35.819L9.85,35.785L9.852,35.757L9.857,35.714L9.86,35.679L9.862,35.656L9.871,35.573L9.873,35.554L9.882,35.467L9.883,35.453L9.894,35.361L9.907,35.253C9.911,35.219 9.915,35.184 9.919,35.15L9.933,35.045L9.946,34.949L9.96,34.849L9.975,34.749L9.978,34.73L9.99,34.649L9.994,34.626L9.999,34.592L10.006,34.549L10.01,34.522L10.016,34.489L10.022,34.45L10.027,34.418L10.033,34.387L10.039,34.35L10.045,34.314L10.05,34.285L10.056,34.251L10.063,34.21L10.068,34.183L10.074,34.152L10.082,34.107L10.092,34.053L10.102,34.003L10.111,33.955L10.122,33.9L10.131,33.856L10.137,33.824L10.142,33.797L10.151,33.758L10.158,33.723L10.164,33.695L10.171,33.66L10.179,33.622L10.185,33.592L10.192,33.562L10.201,33.522L10.208,33.49L10.213,33.464L10.23,33.388L10.235,33.367L10.254,33.286L10.258,33.269L10.278,33.185L10.281,33.172L10.304,33.075L10.328,32.981C10.345,32.914 10.362,32.848 10.379,32.782L10.404,32.689L10.43,32.593L10.456,32.498L10.483,32.402L10.49,32.38L10.511,32.307L10.519,32.28L10.527,32.252L10.539,32.212L10.548,32.181L10.556,32.154L10.567,32.117L10.578,32.082L10.586,32.057L10.596,32.022L10.609,31.983L10.626,31.928L10.64,31.884L10.656,31.834L10.671,31.786L10.686,31.74L10.703,31.688L10.717,31.646L10.736,31.59L10.749,31.552L10.769,31.492L10.781,31.459L10.803,31.395L10.813,31.366L10.837,31.298L10.846,31.273L10.872,31.201L10.879,31.18L10.907,31.104L10.913,31.088L10.948,30.996L10.98,30.91C11.017,30.814 11.054,30.719 11.092,30.624L11.126,30.538L11.164,30.447L11.201,30.357L11.239,30.267L11.278,30.176L11.317,30.087L11.33,30.057L11.356,29.997L11.371,29.964L11.396,29.908L11.413,29.87L11.437,29.819L11.456,29.777L11.477,29.73L11.499,29.685L11.519,29.641L11.542,29.592L11.561,29.553L11.586,29.5L11.603,29.465L11.63,29.408L11.645,29.377L11.675,29.316L11.689,29.29L11.721,29.225L11.732,29.202L11.776,29.115L11.82,29.029L11.86,28.952C11.954,28.772 12.051,28.593 12.151,28.417L12.192,28.344L12.24,28.26L12.289,28.176L12.338,28.092L12.388,28.009L12.438,27.925L12.488,27.843L12.539,27.76L12.591,27.678L12.642,27.596L12.694,27.514L12.747,27.432L12.8,27.351L12.853,27.27L12.896,27.207C13.121,26.871 13.357,26.542 13.604,26.221L13.644,26.17L13.703,26.094L13.763,26.018L13.823,25.942L13.884,25.867L13.944,25.792L13.982,25.746C16.185,23.067 19.125,21.018 22.492,19.907L22.558,19.885L22.652,19.855L22.747,19.825L22.841,19.796L22.936,19.767L23.031,19.738L23.086,19.722L23.126,19.71L23.186,19.693L23.221,19.683L23.286,19.665L23.317,19.656L23.386,19.637L23.413,19.63L23.486,19.61L23.509,19.604L23.587,19.583L23.605,19.578L23.701,19.553L23.798,19.529L23.895,19.505L23.991,19.482C24.024,19.474 24.057,19.466 24.09,19.459L24.195,19.435L24.297,19.412ZM72.629,14.774C73.305,16.205 73.853,17.709 74.259,19.27C75.919,19.678 77.551,20.326 79.107,21.223L79.107,21.223C86.183,25.309 89.545,33.357 88.009,40.945C89.822,42.432 91.429,44.161 92.779,46.083C93.858,43.436 94.452,40.541 94.452,37.509C94.452,25.262 84.756,15.262 72.629,14.774ZM50,30.647C50.685,32.812 51.055,35.118 51.055,37.509C51.055,39.9 50.685,42.205 50,44.371C49.315,42.205 48.945,39.9 48.945,37.509C48.945,35.118 49.315,32.812 50,30.647ZM29.4,14.781C27.604,18.035 26.582,21.774 26.582,25.75C26.582,29.088 27.303,32.259 28.597,35.117C35.563,35.195 41.869,38.046 46.46,42.616C46.127,40.967 45.952,39.258 45.952,37.509C45.952,33.651 46.803,29.99 48.326,26.703C44.642,19.894 37.585,15.171 29.4,14.781ZM69.325,14.878C61.688,15.67 55.167,20.249 51.674,26.703C53.197,29.99 54.048,33.651 54.048,37.509C54.048,39.258 53.873,40.967 53.54,42.616C57.832,38.344 63.623,35.573 70.053,35.167C71.361,32.297 72.09,29.108 72.09,25.75C72.09,21.813 71.088,18.108 69.325,14.878ZM23.887,21.828L23.805,21.851L23.721,21.875L23.637,21.9L23.605,21.91L23.552,21.926L23.52,21.935L23.468,21.952L23.437,21.961L23.383,21.978L23.353,21.988L23.298,22.005L23.27,22.014L23.212,22.034L23.187,22.042L23.105,22.069L23.022,22.097L22.937,22.126C22.909,22.136 22.88,22.146 22.852,22.156L22.768,22.186L22.685,22.217L22.603,22.247L22.587,22.253L22.52,22.279L22.504,22.285L22.436,22.311L22.421,22.316L22.339,22.348L22.258,22.38C22.091,22.447 21.926,22.516 21.762,22.588L21.676,22.626L21.594,22.663L21.514,22.7C19.8,23.486 18.247,24.562 16.915,25.864L16.914,25.865C16.725,26.05 16.539,26.241 16.358,26.436L16.296,26.504L16.236,26.569L16.178,26.634C16.04,26.787 15.905,26.943 15.773,27.102L15.718,27.169L15.663,27.236L15.656,27.244L15.601,27.312L15.547,27.38C15.437,27.518 15.329,27.658 15.224,27.8L15.173,27.869L15.122,27.939L15.113,27.951L15.07,28.01L15.062,28.022L15.019,28.082L15.011,28.093L14.961,28.164L14.912,28.235C14.845,28.332 14.778,28.429 14.713,28.528L14.666,28.6L14.619,28.672L14.609,28.688L14.572,28.745L14.561,28.762L14.525,28.819L14.514,28.836L14.477,28.894L14.468,28.909L14.423,28.983L14.378,29.056L14.332,29.132C14.316,29.158 14.301,29.183 14.286,29.209L14.241,29.285L14.198,29.359L14.155,29.434L14.144,29.452L14.112,29.509L14.101,29.53L14.069,29.585L14.058,29.606L14.027,29.662L14.016,29.682L13.984,29.74L13.974,29.758L13.933,29.835L13.892,29.911L13.851,29.99L13.809,30.07L13.771,30.146L13.732,30.223L13.722,30.244L13.693,30.3L13.682,30.324L13.655,30.378L13.643,30.403L13.617,30.457L13.605,30.482L13.579,30.536L13.568,30.56L13.541,30.617L13.531,30.639L13.495,30.718L13.459,30.796L13.422,30.878L13.386,30.958L13.352,31.037L13.342,31.06L13.318,31.117L13.306,31.143L13.284,31.197L13.272,31.225L13.25,31.277L13.238,31.306L13.217,31.358L13.205,31.387L13.184,31.44L13.173,31.468L13.151,31.523L13.141,31.548L13.109,31.629L13.078,31.711L13.046,31.794L13.016,31.876L12.986,31.957L12.976,31.986L12.957,32.039L12.946,32.07L12.928,32.122L12.917,32.153L12.899,32.204L12.888,32.236L12.87,32.288L12.86,32.319L12.842,32.372L12.832,32.402L12.805,32.485L12.778,32.568L12.752,32.653L12.726,32.737L12.701,32.82L12.692,32.849L12.676,32.904L12.666,32.936L12.651,32.988L12.641,33.022L12.627,33.073L12.617,33.107L12.603,33.158L12.594,33.192L12.58,33.243L12.571,33.277L12.557,33.33L12.548,33.362L12.526,33.447L12.505,33.532L12.483,33.618L12.462,33.704L12.442,33.79L12.435,33.823L12.422,33.876L12.414,33.911L12.403,33.962L12.395,33.998L12.384,34.048L12.376,34.085L12.366,34.135L12.358,34.172L12.347,34.223L12.34,34.258L12.329,34.312L12.323,34.345L12.306,34.432L12.289,34.519L12.273,34.607L12.258,34.694L12.252,34.727L12.243,34.782L12.237,34.818L12.228,34.87L12.222,34.907L12.214,34.958L12.208,34.996L12.201,35.046L12.195,35.084L12.187,35.135L12.182,35.173L12.175,35.225L12.17,35.261L12.162,35.316L12.158,35.35L12.146,35.439L12.135,35.528L12.124,35.617L12.114,35.706L12.111,35.741L12.105,35.795L12.101,35.833L12.096,35.885L12.092,35.923L12.087,35.975L12.084,36.014L12.079,36.065L12.076,36.104L12.071,36.156L12.068,36.194L12.064,36.247L12.061,36.284L12.055,36.374L12.049,36.464L12.043,36.555L12.038,36.645L12.037,36.68L12.034,36.736L12.032,36.774L12.03,36.827L12.028,36.866L12.026,36.918L12.025,36.958L12.023,37.01L12.022,37.05L12.021,37.102L12.02,37.141L12.019,37.194L12.018,37.233L12.017,37.288L12.017,37.324L12.016,37.416L12.016,37.508L12.016,37.601L12.016,37.63L12.017,37.695L12.017,37.728L12.018,37.792L12.019,37.822L12.021,37.914L12.023,38.007L12.024,38.035L12.026,38.1L12.028,38.133L12.03,38.196L12.031,38.226L12.036,38.318L12.04,38.41L12.042,38.436L12.046,38.503L12.048,38.535L12.052,38.597L12.054,38.628L12.06,38.72L12.067,38.811L12.069,38.835L12.075,38.903L12.077,38.934L12.083,38.997L12.086,39.027L12.094,39.119L12.104,39.21L12.113,39.301L12.117,39.331L12.124,39.394L12.127,39.424L12.135,39.493L12.138,39.514L12.15,39.605L12.161,39.696L12.165,39.724L12.174,39.788L12.178,39.817L12.188,39.886L12.191,39.907L12.205,39.998L12.219,40.088L12.223,40.113L12.234,40.18L12.238,40.206L12.25,40.276L12.253,40.297L12.269,40.388L12.286,40.478L12.29,40.499L12.303,40.568L12.307,40.593L12.324,40.677C13.76,39.538 15.321,38.549 16.982,37.734C16.981,37.659 16.98,37.584 16.98,37.508C16.98,32.922 19.708,28.973 23.629,27.194C23.603,26.716 23.589,26.235 23.589,25.75C23.589,24.417 23.691,23.108 23.887,21.828ZM74.773,21.746C74.977,23.052 75.083,24.389 75.083,25.75C75.083,26.242 75.069,26.73 75.042,27.215C75.196,27.295 75.35,27.379 75.502,27.467C79.019,29.498 81.034,33.13 81.158,36.911C82.864,37.586 84.481,38.438 85.986,39.445C86.839,33.096 83.876,26.57 77.985,23.167C76.947,22.569 75.87,22.096 74.773,21.746ZM57.046,36.646C58.657,37.576 60.719,37.023 61.649,35.413C62.578,33.803 62.026,31.74 60.415,30.811C58.805,29.881 56.742,30.434 55.813,32.044C54.883,33.654 55.436,35.717 57.046,36.646ZM41.626,36.646C43.237,35.716 43.789,33.654 42.86,32.044C41.93,30.434 39.868,29.881 38.257,30.811C36.647,31.74 36.094,33.802 37.024,35.413C37.954,37.023 40.016,37.576 41.626,36.646L41.626,36.646ZM23.874,29.584C21.308,31.02 19.511,33.667 19.256,36.751C21.208,36.018 23.27,35.515 25.412,35.276C24.691,33.47 24.17,31.564 23.874,29.584ZM74.787,29.661C74.495,31.573 73.992,33.415 73.304,35.164C75.215,35.282 77.069,35.608 78.845,36.121C78.515,33.556 77.097,31.16 74.787,29.661ZM58.169,34.702C57.631,34.392 57.447,33.704 57.757,33.166C58.067,32.629 58.755,32.445 59.293,32.755C59.83,33.065 60.015,33.753 59.704,34.291C59.394,34.828 58.706,35.012 58.169,34.702ZM40.504,34.702C39.966,35.012 39.278,34.828 38.968,34.29C38.658,33.753 38.842,33.065 39.38,32.755C39.917,32.445 40.605,32.629 40.915,33.166C41.226,33.704 41.041,34.392 40.504,34.702L40.504,34.702ZM54.813,18.079C52.016,16.142 48.241,15.863 45.099,17.678C45.023,17.721 44.949,17.766 44.875,17.811C46.862,19.486 48.593,21.455 50,23.652C51.333,21.571 52.956,19.694 54.813,18.079ZM61.153,14.017C56.07,8.927 48.02,7.666 41.494,11.433C40.327,12.107 39.274,12.904 38.344,13.797C39.988,14.495 41.545,15.36 42.995,16.369C43.308,16.143 43.635,15.931 43.976,15.734L43.976,15.734C48.102,13.351 53.103,13.862 56.633,16.633C58.04,15.616 59.554,14.737 61.153,14.017ZM67.535,12.098C63.381,6.572 56.773,2.996 49.336,2.996C41.973,2.996 35.423,6.501 31.263,11.931C32.905,12.119 34.5,12.462 36.035,12.946C37.267,11.615 38.718,10.444 40.372,9.489L40.372,9.489C48.088,5.035 57.676,6.76 63.404,13.129C64.736,12.676 66.116,12.329 67.535,12.098Z" style="fill:rgb(28,28,27);"/>
        </g>
    </g>
</svg>
